<mxfile host="Electron" agent="Mozilla/5.0 (Windows NT 10.0; Win64; x64) AppleWebKit/537.36 (KHTML, like Gecko) draw.io/25.0.2 Chrome/128.0.6613.186 Electron/32.2.5 Safari/537.36" version="25.0.2">
  <diagram name="Página-1" id="Ogjw7mfiGQgQhLG7W4vd">
    <mxGraphModel dx="1687" dy="984" grid="1" gridSize="10" guides="1" tooltips="1" connect="1" arrows="1" fold="1" page="0" pageScale="1" pageWidth="827" pageHeight="1169" math="0" shadow="0">
      <root>
        <mxCell id="0" />
        <mxCell id="1" parent="0" />
        <mxCell id="NIhlScBV0QvWfO8qGJx1-2" value="Cadastro dos prestadores de serviços" style="rounded=0;whiteSpace=wrap;html=1;fillColor=none;" parent="1" vertex="1">
          <mxGeometry x="110" y="60" width="1520" height="20" as="geometry" />
        </mxCell>
        <mxCell id="NIhlScBV0QvWfO8qGJx1-3" value="" style="rounded=0;whiteSpace=wrap;html=1;fillColor=none;" parent="1" vertex="1">
          <mxGeometry x="110" y="80" width="1520" height="580" as="geometry" />
        </mxCell>
        <mxCell id="NIhlScBV0QvWfO8qGJx1-5" value="Prestador de serviços" style="rounded=0;whiteSpace=wrap;html=1;fillColor=none;rotation=-90;" parent="1" vertex="1">
          <mxGeometry x="-6.64" y="166.47" width="202.24" height="30" as="geometry" />
        </mxCell>
        <mxCell id="NIhlScBV0QvWfO8qGJx1-7" value="Sistema" style="rounded=0;whiteSpace=wrap;html=1;fillColor=none;rotation=-90;" parent="1" vertex="1">
          <mxGeometry x="-94.03" y="455.96" width="377.19" height="30" as="geometry" />
        </mxCell>
        <mxCell id="NIhlScBV0QvWfO8qGJx1-8" style="edgeStyle=orthogonalEdgeStyle;rounded=0;orthogonalLoop=1;jettySize=auto;html=1;exitX=0.5;exitY=1;exitDx=0;exitDy=0;" parent="1" edge="1">
          <mxGeometry relative="1" as="geometry">
            <mxPoint x="740.06" y="681" as="sourcePoint" />
            <mxPoint x="740" y="681" as="targetPoint" />
          </mxGeometry>
        </mxCell>
        <mxCell id="NIhlScBV0QvWfO8qGJx1-23" value="" style="edgeStyle=orthogonalEdgeStyle;rounded=0;orthogonalLoop=1;jettySize=auto;html=1;" parent="1" source="NIhlScBV0QvWfO8qGJx1-16" target="NIhlScBV0QvWfO8qGJx1-21" edge="1">
          <mxGeometry relative="1" as="geometry" />
        </mxCell>
        <mxCell id="NIhlScBV0QvWfO8qGJx1-24" value="Sim" style="edgeLabel;html=1;align=center;verticalAlign=middle;resizable=0;points=[];" parent="NIhlScBV0QvWfO8qGJx1-23" vertex="1" connectable="0">
          <mxGeometry x="0.0441" relative="1" as="geometry">
            <mxPoint as="offset" />
          </mxGeometry>
        </mxCell>
        <mxCell id="NIhlScBV0QvWfO8qGJx1-31" value="" style="edgeStyle=orthogonalEdgeStyle;rounded=0;orthogonalLoop=1;jettySize=auto;html=1;" parent="1" source="NIhlScBV0QvWfO8qGJx1-16" target="NIhlScBV0QvWfO8qGJx1-30" edge="1">
          <mxGeometry relative="1" as="geometry" />
        </mxCell>
        <mxCell id="NIhlScBV0QvWfO8qGJx1-32" value="Não" style="edgeLabel;html=1;align=center;verticalAlign=middle;resizable=0;points=[];" parent="NIhlScBV0QvWfO8qGJx1-31" vertex="1" connectable="0">
          <mxGeometry x="-0.4411" y="-2" relative="1" as="geometry">
            <mxPoint as="offset" />
          </mxGeometry>
        </mxCell>
        <mxCell id="NIhlScBV0QvWfO8qGJx1-16" value="Possui antecedentes criminais?" style="rhombus;whiteSpace=wrap;html=1;fillColor=none;" parent="1" vertex="1">
          <mxGeometry x="764.12" y="328.12" width="110" height="100" as="geometry" />
        </mxCell>
        <mxCell id="NIhlScBV0QvWfO8qGJx1-25" value="" style="edgeStyle=orthogonalEdgeStyle;rounded=0;orthogonalLoop=1;jettySize=auto;html=1;" parent="1" source="NIhlScBV0QvWfO8qGJx1-21" target="NIhlScBV0QvWfO8qGJx1-22" edge="1">
          <mxGeometry relative="1" as="geometry" />
        </mxCell>
        <mxCell id="NIhlScBV0QvWfO8qGJx1-21" value="Mensagem informando que o cadastro não poderá ser feito" style="rounded=1;whiteSpace=wrap;html=1;fillColor=none;" parent="1" vertex="1">
          <mxGeometry x="759.12" y="155" width="120" height="60" as="geometry" />
        </mxCell>
        <mxCell id="NIhlScBV0QvWfO8qGJx1-27" value="" style="edgeStyle=orthogonalEdgeStyle;rounded=0;orthogonalLoop=1;jettySize=auto;html=1;" parent="1" source="NIhlScBV0QvWfO8qGJx1-22" target="NIhlScBV0QvWfO8qGJx1-26" edge="1">
          <mxGeometry relative="1" as="geometry" />
        </mxCell>
        <mxCell id="NIhlScBV0QvWfO8qGJx1-22" value="&lt;font style=&quot;font-size: 10px;&quot;&gt;Armazenamento do cadastro do prestador no BD com os prestadores inaptos para a plataforma&lt;/font&gt;" style="rounded=1;whiteSpace=wrap;html=1;fillColor=none;" parent="1" vertex="1">
          <mxGeometry x="886" y="505" width="120" height="60" as="geometry" />
        </mxCell>
        <mxCell id="NIhlScBV0QvWfO8qGJx1-26" value="Fim do cadastro" style="ellipse;whiteSpace=wrap;html=1;aspect=fixed;fillColor=none;" parent="1" vertex="1">
          <mxGeometry x="1056" y="490" width="90" height="90" as="geometry" />
        </mxCell>
        <mxCell id="NIhlScBV0QvWfO8qGJx1-34" value="" style="edgeStyle=orthogonalEdgeStyle;rounded=0;orthogonalLoop=1;jettySize=auto;html=1;" parent="1" source="NIhlScBV0QvWfO8qGJx1-30" target="NIhlScBV0QvWfO8qGJx1-33" edge="1">
          <mxGeometry relative="1" as="geometry" />
        </mxCell>
        <mxCell id="NIhlScBV0QvWfO8qGJx1-36" value="Não" style="edgeLabel;html=1;align=center;verticalAlign=middle;resizable=0;points=[];" parent="NIhlScBV0QvWfO8qGJx1-34" vertex="1" connectable="0">
          <mxGeometry x="-0.1923" y="3" relative="1" as="geometry">
            <mxPoint as="offset" />
          </mxGeometry>
        </mxCell>
        <mxCell id="NIhlScBV0QvWfO8qGJx1-39" value="" style="edgeStyle=orthogonalEdgeStyle;rounded=0;orthogonalLoop=1;jettySize=auto;html=1;" parent="1" source="NIhlScBV0QvWfO8qGJx1-30" edge="1">
          <mxGeometry relative="1" as="geometry">
            <mxPoint x="1361" y="378.1199999999999" as="targetPoint" />
          </mxGeometry>
        </mxCell>
        <mxCell id="NIhlScBV0QvWfO8qGJx1-44" value="Sim" style="edgeLabel;html=1;align=center;verticalAlign=middle;resizable=0;points=[];" parent="NIhlScBV0QvWfO8qGJx1-39" vertex="1" connectable="0">
          <mxGeometry x="0.2069" y="3" relative="1" as="geometry">
            <mxPoint as="offset" />
          </mxGeometry>
        </mxCell>
        <mxCell id="NIhlScBV0QvWfO8qGJx1-30" value="Está apto para prestar o serviço selecionado?" style="rhombus;whiteSpace=wrap;html=1;fillColor=none;" parent="1" vertex="1">
          <mxGeometry x="1181" y="328.12" width="110" height="100" as="geometry" />
        </mxCell>
        <mxCell id="NIhlScBV0QvWfO8qGJx1-33" value="Solicitação para reenviar documentos ou alterar o serviço" style="rounded=1;whiteSpace=wrap;html=1;fillColor=none;" parent="1" vertex="1">
          <mxGeometry x="1176" y="505" width="120" height="60" as="geometry" />
        </mxCell>
        <mxCell id="NIhlScBV0QvWfO8qGJx1-46" value="" style="edgeStyle=orthogonalEdgeStyle;rounded=0;orthogonalLoop=1;jettySize=auto;html=1;" parent="1" source="NIhlScBV0QvWfO8qGJx1-40" target="NIhlScBV0QvWfO8qGJx1-45" edge="1">
          <mxGeometry relative="1" as="geometry" />
        </mxCell>
        <mxCell id="NIhlScBV0QvWfO8qGJx1-40" value="&lt;font style=&quot;font-size: 10px;&quot;&gt;Armazenamento do cadastro do prestador no BD com os prestadores&lt;/font&gt;" style="rounded=1;whiteSpace=wrap;html=1;fillColor=none;" parent="1" vertex="1">
          <mxGeometry x="1361" y="348.12" width="120" height="60" as="geometry" />
        </mxCell>
        <mxCell id="NIhlScBV0QvWfO8qGJx1-54" value="" style="edgeStyle=orthogonalEdgeStyle;rounded=0;orthogonalLoop=1;jettySize=auto;html=1;" parent="1" source="NIhlScBV0QvWfO8qGJx1-45" target="NIhlScBV0QvWfO8qGJx1-53" edge="1">
          <mxGeometry relative="1" as="geometry" />
        </mxCell>
        <mxCell id="NIhlScBV0QvWfO8qGJx1-45" value="Mensagem informando que o cadastro foi concluido" style="rounded=1;whiteSpace=wrap;html=1;fillColor=none;" parent="1" vertex="1">
          <mxGeometry x="1361" y="155" width="120" height="60" as="geometry" />
        </mxCell>
        <mxCell id="NIhlScBV0QvWfO8qGJx1-50" value="" style="endArrow=none;dashed=1;html=1;dashPattern=1 3;strokeWidth=2;rounded=0;exitX=0;exitY=0.345;exitDx=0;exitDy=0;entryX=0.999;entryY=0.345;entryDx=0;entryDy=0;entryPerimeter=0;exitPerimeter=0;" parent="1" source="NIhlScBV0QvWfO8qGJx1-3" target="NIhlScBV0QvWfO8qGJx1-3" edge="1">
          <mxGeometry width="50" height="50" relative="1" as="geometry">
            <mxPoint x="710" y="340" as="sourcePoint" />
            <mxPoint x="760" y="290" as="targetPoint" />
          </mxGeometry>
        </mxCell>
        <mxCell id="NIhlScBV0QvWfO8qGJx1-53" value="Fim do cadastro" style="ellipse;whiteSpace=wrap;html=1;aspect=fixed;fillColor=none;" parent="1" vertex="1">
          <mxGeometry x="1531" y="140.00000000000003" width="90" height="90" as="geometry" />
        </mxCell>
        <mxCell id="AjXyIFemAKqOr5RNVAfn-1" style="edgeStyle=orthogonalEdgeStyle;rounded=0;orthogonalLoop=1;jettySize=auto;html=1;exitX=1;exitY=0.5;exitDx=0;exitDy=0;entryX=0;entryY=0.5;entryDx=0;entryDy=0;" edge="1" parent="1" source="AjXyIFemAKqOr5RNVAfn-2" target="AjXyIFemAKqOr5RNVAfn-5">
          <mxGeometry relative="1" as="geometry" />
        </mxCell>
        <mxCell id="AjXyIFemAKqOr5RNVAfn-2" value="Processamento dos dados" style="rounded=1;whiteSpace=wrap;html=1;fillColor=none;" vertex="1" parent="1">
          <mxGeometry x="429" y="490" width="120" height="60" as="geometry" />
        </mxCell>
        <mxCell id="AjXyIFemAKqOr5RNVAfn-3" style="edgeStyle=orthogonalEdgeStyle;rounded=0;orthogonalLoop=1;jettySize=auto;html=1;exitX=0.5;exitY=0;exitDx=0;exitDy=0;entryX=0.5;entryY=1;entryDx=0;entryDy=0;" edge="1" parent="1" source="AjXyIFemAKqOr5RNVAfn-5" target="AjXyIFemAKqOr5RNVAfn-7">
          <mxGeometry relative="1" as="geometry" />
        </mxCell>
        <mxCell id="AjXyIFemAKqOr5RNVAfn-4" value="Não" style="edgeLabel;html=1;align=center;verticalAlign=middle;resizable=0;points=[];" vertex="1" connectable="0" parent="AjXyIFemAKqOr5RNVAfn-3">
          <mxGeometry x="-0.511" y="-1" relative="1" as="geometry">
            <mxPoint as="offset" />
          </mxGeometry>
        </mxCell>
        <mxCell id="AjXyIFemAKqOr5RNVAfn-20" style="edgeStyle=orthogonalEdgeStyle;rounded=0;orthogonalLoop=1;jettySize=auto;html=1;exitX=1;exitY=0.5;exitDx=0;exitDy=0;entryX=0;entryY=0.5;entryDx=0;entryDy=0;" edge="1" parent="1" source="AjXyIFemAKqOr5RNVAfn-5" target="NIhlScBV0QvWfO8qGJx1-16">
          <mxGeometry relative="1" as="geometry" />
        </mxCell>
        <mxCell id="AjXyIFemAKqOr5RNVAfn-21" value="SIM" style="edgeLabel;html=1;align=center;verticalAlign=middle;resizable=0;points=[];" vertex="1" connectable="0" parent="AjXyIFemAKqOr5RNVAfn-20">
          <mxGeometry x="-0.8735" y="2" relative="1" as="geometry">
            <mxPoint as="offset" />
          </mxGeometry>
        </mxCell>
        <mxCell id="AjXyIFemAKqOr5RNVAfn-5" value="Dados possiveis?" style="rhombus;whiteSpace=wrap;html=1;fillColor=none;" vertex="1" parent="1">
          <mxGeometry x="580" y="470" width="110" height="100" as="geometry" />
        </mxCell>
        <mxCell id="AjXyIFemAKqOr5RNVAfn-6" style="edgeStyle=orthogonalEdgeStyle;rounded=0;orthogonalLoop=1;jettySize=auto;html=1;exitX=0.5;exitY=0;exitDx=0;exitDy=0;entryX=0.5;entryY=0;entryDx=0;entryDy=0;" edge="1" parent="1" source="AjXyIFemAKqOr5RNVAfn-7" target="AjXyIFemAKqOr5RNVAfn-11">
          <mxGeometry relative="1" as="geometry">
            <Array as="points">
              <mxPoint x="635" y="120" />
              <mxPoint x="210" y="120" />
            </Array>
          </mxGeometry>
        </mxCell>
        <mxCell id="AjXyIFemAKqOr5RNVAfn-7" value="Mensagem informando que o dados são repetidos ou invalidos" style="rounded=1;whiteSpace=wrap;html=1;fillColor=none;" vertex="1" parent="1">
          <mxGeometry x="575" y="155" width="120" height="60" as="geometry" />
        </mxCell>
        <mxCell id="AjXyIFemAKqOr5RNVAfn-8" style="edgeStyle=orthogonalEdgeStyle;rounded=0;orthogonalLoop=1;jettySize=auto;html=1;exitX=0.5;exitY=1;exitDx=0;exitDy=0;entryX=0.5;entryY=0;entryDx=0;entryDy=0;" edge="1" parent="1" source="AjXyIFemAKqOr5RNVAfn-9" target="AjXyIFemAKqOr5RNVAfn-2">
          <mxGeometry relative="1" as="geometry" />
        </mxCell>
        <mxCell id="AjXyIFemAKqOr5RNVAfn-9" value="Prenchimento dos dados" style="rounded=1;whiteSpace=wrap;html=1;fillColor=none;" vertex="1" parent="1">
          <mxGeometry x="428.5" y="155" width="120" height="60" as="geometry" />
        </mxCell>
        <mxCell id="AjXyIFemAKqOr5RNVAfn-10" style="edgeStyle=orthogonalEdgeStyle;rounded=0;orthogonalLoop=1;jettySize=auto;html=1;exitX=0.5;exitY=1;exitDx=0;exitDy=0;entryX=0.5;entryY=0;entryDx=0;entryDy=0;" edge="1" parent="1" source="AjXyIFemAKqOr5RNVAfn-11" target="AjXyIFemAKqOr5RNVAfn-13">
          <mxGeometry relative="1" as="geometry" />
        </mxCell>
        <mxCell id="AjXyIFemAKqOr5RNVAfn-11" value="Prenchimento do número de celular" style="ellipse;whiteSpace=wrap;html=1;aspect=fixed;fillColor=none;" vertex="1" parent="1">
          <mxGeometry x="165" y="145" width="90" height="90" as="geometry" />
        </mxCell>
        <mxCell id="AjXyIFemAKqOr5RNVAfn-12" style="edgeStyle=orthogonalEdgeStyle;rounded=0;orthogonalLoop=1;jettySize=auto;html=1;exitX=0.979;exitY=0.07;exitDx=0;exitDy=0;entryX=0;entryY=0.5;entryDx=0;entryDy=0;exitPerimeter=0;" edge="1" parent="1" source="AjXyIFemAKqOr5RNVAfn-13" target="AjXyIFemAKqOr5RNVAfn-19">
          <mxGeometry relative="1" as="geometry">
            <Array as="points">
              <mxPoint x="268" y="325" />
              <mxPoint x="268" y="325" />
              <mxPoint x="268" y="185" />
            </Array>
          </mxGeometry>
        </mxCell>
        <mxCell id="AjXyIFemAKqOr5RNVAfn-13" value="Enviar confirmação de número por SMS" style="rounded=1;whiteSpace=wrap;html=1;fillColor=none;" vertex="1" parent="1">
          <mxGeometry x="150" y="325" width="120" height="60" as="geometry" />
        </mxCell>
        <mxCell id="AjXyIFemAKqOr5RNVAfn-14" style="edgeStyle=orthogonalEdgeStyle;rounded=0;orthogonalLoop=1;jettySize=auto;html=1;exitX=1;exitY=0.5;exitDx=0;exitDy=0;entryX=0;entryY=0.5;entryDx=0;entryDy=0;" edge="1" parent="1" source="AjXyIFemAKqOr5RNVAfn-17" target="AjXyIFemAKqOr5RNVAfn-9">
          <mxGeometry relative="1" as="geometry">
            <Array as="points">
              <mxPoint x="420" y="357" />
              <mxPoint x="420" y="185" />
            </Array>
          </mxGeometry>
        </mxCell>
        <mxCell id="AjXyIFemAKqOr5RNVAfn-15" value="SIM" style="edgeLabel;html=1;align=center;verticalAlign=middle;resizable=0;points=[];" vertex="1" connectable="0" parent="AjXyIFemAKqOr5RNVAfn-14">
          <mxGeometry x="-0.7404" y="-1" relative="1" as="geometry">
            <mxPoint as="offset" />
          </mxGeometry>
        </mxCell>
        <mxCell id="AjXyIFemAKqOr5RNVAfn-16" value="NÃO" style="edgeLabel;html=1;align=center;verticalAlign=middle;resizable=0;points=[];" vertex="1" connectable="0" parent="1">
          <mxGeometry x="324.51504699595716" y="401.87416260431087" as="geometry" />
        </mxCell>
        <mxCell id="AjXyIFemAKqOr5RNVAfn-23" style="edgeStyle=orthogonalEdgeStyle;rounded=0;orthogonalLoop=1;jettySize=auto;html=1;exitX=0.5;exitY=1;exitDx=0;exitDy=0;entryX=0;entryY=0.5;entryDx=0;entryDy=0;" edge="1" parent="1" source="AjXyIFemAKqOr5RNVAfn-17" target="AjXyIFemAKqOr5RNVAfn-11">
          <mxGeometry relative="1" as="geometry">
            <Array as="points">
              <mxPoint x="348" y="420" />
              <mxPoint x="130" y="420" />
              <mxPoint x="130" y="190" />
            </Array>
          </mxGeometry>
        </mxCell>
        <mxCell id="AjXyIFemAKqOr5RNVAfn-17" value="Número confirmado?" style="rhombus;whiteSpace=wrap;html=1;fillColor=none;" vertex="1" parent="1">
          <mxGeometry x="301.88" y="315" width="93.12" height="85" as="geometry" />
        </mxCell>
        <mxCell id="AjXyIFemAKqOr5RNVAfn-18" style="edgeStyle=orthogonalEdgeStyle;rounded=0;orthogonalLoop=1;jettySize=auto;html=1;exitX=0.5;exitY=1;exitDx=0;exitDy=0;entryX=0.5;entryY=0;entryDx=0;entryDy=0;" edge="1" parent="1" source="AjXyIFemAKqOr5RNVAfn-19" target="AjXyIFemAKqOr5RNVAfn-17">
          <mxGeometry relative="1" as="geometry" />
        </mxCell>
        <mxCell id="AjXyIFemAKqOr5RNVAfn-19" value="Cola o SMS recebido" style="rounded=1;whiteSpace=wrap;html=1;fillColor=none;" vertex="1" parent="1">
          <mxGeometry x="288.44" y="155" width="120" height="60" as="geometry" />
        </mxCell>
        <mxCell id="AjXyIFemAKqOr5RNVAfn-22" style="edgeStyle=orthogonalEdgeStyle;rounded=0;orthogonalLoop=1;jettySize=auto;html=1;exitX=0.5;exitY=1;exitDx=0;exitDy=0;entryX=0.261;entryY=1.003;entryDx=0;entryDy=0;entryPerimeter=0;" edge="1" parent="1" source="NIhlScBV0QvWfO8qGJx1-33" target="AjXyIFemAKqOr5RNVAfn-9">
          <mxGeometry relative="1" as="geometry">
            <mxPoint x="460" y="220" as="targetPoint" />
            <Array as="points">
              <mxPoint x="1236" y="590" />
              <mxPoint x="410" y="590" />
              <mxPoint x="410" y="420" />
              <mxPoint x="460" y="420" />
            </Array>
          </mxGeometry>
        </mxCell>
      </root>
    </mxGraphModel>
  </diagram>
</mxfile>
